<svg id="Grupo_109" data-name="Grupo 109" xmlns="http://www.w3.org/2000/svg" xmlns:xlink="http://www.w3.org/1999/xlink" width="120.168" height="60.226" viewBox="0 0 120.168 60.226">
  <defs>
    <clipPath id="clip-path">
      <path id="Trazado_118" data-name="Trazado 118" d="M92.933,6.811,112,45.2a.413.413,0,0,0,.37.23H129.14l-1.846-3.972-4.978-3.744-3.484-7.43L117.789,21,111.252,6.932a.208.208,0,0,0-.189-.121Z" transform="translate(-92.933 -6.811)" fill="none"/>
    </clipPath>
    <linearGradient id="linear-gradient" x1="-0.262" y1="1.278" x2="-0.258" y2="1.278" gradientUnits="objectBoundingBox">
      <stop offset="0" stop-color="#20bed3"/>
      <stop offset="1" stop-color="#00183a"/>
    </linearGradient>
    <clipPath id="clip-path-2">
      <rect id="Rectángulo_35" data-name="Rectángulo 35" width="120.168" height="60.226" fill="none"/>
    </clipPath>
    <clipPath id="clip-path-3">
      <path id="Trazado_120" data-name="Trazado 120" d="M320.139,6.811a.4.4,0,0,0-.366.233l-7.43,15.988,1.331,7.425-3.939,6.983-6.085,4.3-1.713,3.687h16.652a.609.609,0,0,0,.545-.338l19.01-38.276Z" transform="translate(-301.937 -6.811)" fill="none"/>
    </clipPath>
    <linearGradient id="linear-gradient-2" x1="-1.123" y1="1.294" x2="-1.119" y2="1.294" xlink:href="#linear-gradient"/>
  </defs>
  <g id="Grupo_110" data-name="Grupo 110" transform="translate(19.791 1.45)">
    <g id="Grupo_109-2" data-name="Grupo 109" clip-path="url(#clip-path)">
      <rect id="Rectángulo_34" data-name="Rectángulo 34" width="49.698" height="50.766" transform="translate(-15.502 7.799) rotate(-26.706)" fill="url(#linear-gradient)"/>
    </g>
  </g>
  <g id="Grupo_112" data-name="Grupo 112">
    <g id="Grupo_111" data-name="Grupo 111" clip-path="url(#clip-path-2)">
      <path id="Trazado_119" data-name="Trazado 119" d="M45.7,6.812H27.441L9.993,44.359a.751.751,0,0,0,.681,1.067H25a2.455,2.455,0,0,0,2.2-1.363Z" transform="translate(-7.809 -5.361)" fill="#20bed3"/>
    </g>
  </g>
  <g id="Grupo_114" data-name="Grupo 114" transform="translate(64.301 1.45)">
    <g id="Grupo_113" data-name="Grupo 113" clip-path="url(#clip-path-3)">
      <rect id="Rectángulo_36" data-name="Rectángulo 36" width="50.766" height="49.698" transform="translate(-15.502 30.815) rotate(-63.294)" fill="url(#linear-gradient-2)"/>
    </g>
  </g>
  <g id="Grupo_116" data-name="Grupo 116">
    <g id="Grupo_115" data-name="Grupo 115" clip-path="url(#clip-path-2)">
      <path id="Trazado_121" data-name="Trazado 121" d="M386.945,6.812h17.784a.751.751,0,0,1,.681.434l17.246,37.112a.751.751,0,0,1-.681,1.067H407.644a2.455,2.455,0,0,1-2.2-1.363Z" transform="translate(-304.541 -5.361)" fill="#20bed3"/>
      <path id="Trazado_122" data-name="Trazado 122" d="M206.356,0a20.34,20.34,0,0,1,20.788,20.727,20.579,20.579,0,1,1-41.156,0A20.542,20.542,0,0,1,206.356,0m.419,35.525c7.968,0,13.18-6.77,13.18-14.8,0-7.548-5.212-14.737-13.18-14.737-8.387,0-13.6,6.769-13.6,14.737,0,8.028,5.212,14.8,13.6,14.8" transform="translate(-146.38)" fill="#424242"/>
      <path id="Trazado_123" data-name="Trazado 123" d="M5.66,252.428c.044.121-.022.175-.131.175h-.34a.2.2,0,0,1-.208-.175l-.647-2.083H1.342l-.658,2.083c-.033.121-.088.175-.2.175H.137c-.11,0-.164-.055-.121-.175l2.444-7.639a.219.219,0,0,1,.208-.175h.351a.219.219,0,0,1,.208.175ZM4.137,249.71,2.855,245.6l-1.3,4.11Z" transform="translate(-0.001 -192.52)" fill="#424242"/>
      <path id="Trazado_124" data-name="Trazado 124" d="M40.645,248.179a.145.145,0,0,1,.164.164v1.48a2.491,2.491,0,0,1-2.291,2.6h-.5a2.487,2.487,0,0,1-2.324-2.6v-3.014a2.5,2.5,0,0,1,2.324-2.609h.5a2.5,2.5,0,0,1,2.28,2.532.145.145,0,0,1-.164.164h-.329a.153.153,0,0,1-.175-.164,1.792,1.792,0,0,0-1.611-1.9h-.5a1.828,1.828,0,0,0-1.666,1.973v3.014a1.81,1.81,0,0,0,1.666,1.962h.5a1.807,1.807,0,0,0,1.622-1.962v-1.008h-1.6a.145.145,0,0,1-.164-.164v-.307a.145.145,0,0,1,.164-.164Z" transform="translate(-28.09 -192.195)" fill="#424242"/>
      <path id="Trazado_125" data-name="Trazado 125" d="M71.969,248.4h2.861a.145.145,0,0,1,.164.164v.307a.145.145,0,0,1-.164.164H71.969v3.058h3.573a.145.145,0,0,1,.164.164v.307a.145.145,0,0,1-.164.165H71.475a.145.145,0,0,1-.164-.165v-7.628a.145.145,0,0,1,.164-.164h4.066a.145.145,0,0,1,.164.164v.307a.145.145,0,0,1-.164.165H71.969Z" transform="translate(-56.124 -192.641)" fill="#424242"/>
      <path id="Trazado_126" data-name="Trazado 126" d="M108.92,244.767a.145.145,0,0,1,.164.164v7.628a.145.145,0,0,1-.164.164H108.2a.2.2,0,0,1-.2-.121l-3.551-7.179v7.135a.145.145,0,0,1-.165.164h-.329a.145.145,0,0,1-.164-.164v-7.628a.145.145,0,0,1,.164-.164h.723a.2.2,0,0,1,.2.121l3.551,7.179v-7.135a.145.145,0,0,1,.164-.164Z" transform="translate(-81.688 -192.641)" fill="#424242"/>
      <path id="Trazado_127" data-name="Trazado 127" d="M144.661,249.7a.145.145,0,0,1,.164.164,2.508,2.508,0,0,1-2.28,2.554h-.5a2.526,2.526,0,0,1-2.324-2.63v-2.981a2.5,2.5,0,0,1,2.324-2.609h.5a2.5,2.5,0,0,1,2.28,2.532.145.145,0,0,1-.164.164h-.329a.153.153,0,0,1-.175-.164,1.8,1.8,0,0,0-1.611-1.9h-.5a1.828,1.828,0,0,0-1.666,1.973v2.981a1.85,1.85,0,0,0,1.666,1.995h.5a1.806,1.806,0,0,0,1.611-1.918.153.153,0,0,1,.175-.164Z" transform="translate(-109.963 -192.195)" fill="#424242"/>
      <path id="Trazado_128" data-name="Trazado 128" d="M179.128,244.767c.11,0,.175.055.11.164l-2.4,4.3v3.332a.145.145,0,0,1-.165.164h-.329a.145.145,0,0,1-.164-.164v-3.332l-2.378-4.3c-.066-.109,0-.164.11-.164h.427c.109,0,.153.055.219.164l1.951,3.584,1.973-3.584c.066-.109.11-.164.219-.164Z" transform="translate(-136.767 -192.641)" fill="#424242"/>
      <path id="Trazado_129" data-name="Trazado 129" d="M234.3,244.2a2.483,2.483,0,0,1,2.3,2.62v2.915a2.483,2.483,0,0,1-2.3,2.62h-.5a2.483,2.483,0,0,1-2.3-2.62v-2.915a2.483,2.483,0,0,1,2.3-2.62Zm-.022,7.53a1.827,1.827,0,0,0,1.666-1.995v-2.915a1.81,1.81,0,0,0-1.666-1.984h-.46a1.81,1.81,0,0,0-1.666,1.984v2.915a1.814,1.814,0,0,0,1.666,1.995Z" transform="translate(-182.196 -192.196)" fill="#424242"/>
      <path id="Trazado_130" data-name="Trazado 130" d="M267.979,248.5h2.861a.145.145,0,0,1,.164.164v.307a.145.145,0,0,1-.164.164h-2.861v3.42a.145.145,0,0,1-.164.164h-.329a.145.145,0,0,1-.164-.164v-7.628a.145.145,0,0,1,.164-.164h4.066a.145.145,0,0,1,.164.164v.307a.145.145,0,0,1-.164.164h-3.573Z" transform="translate(-210.392 -192.641)" fill="#424242"/>
      <path id="Trazado_131" data-name="Trazado 131" d="M324.022,252.428c.044.121-.022.175-.131.175h-.34a.2.2,0,0,1-.208-.175l-.647-2.083H319.7l-.658,2.083c-.033.121-.088.175-.2.175H318.5c-.11,0-.164-.055-.121-.175l2.444-7.639a.219.219,0,0,1,.208-.175h.351a.219.219,0,0,1,.208.175ZM322.5,249.71l-1.282-4.11-1.3,4.11Z" transform="translate(-250.564 -192.52)" fill="#424242"/>
      <path id="Trazado_132" data-name="Trazado 132" d="M359.007,248.179a.145.145,0,0,1,.164.164v1.48a2.491,2.491,0,0,1-2.291,2.6h-.5a2.487,2.487,0,0,1-2.324-2.6v-3.014a2.5,2.5,0,0,1,2.324-2.609h.5a2.5,2.5,0,0,1,2.28,2.532.145.145,0,0,1-.164.164h-.329a.153.153,0,0,1-.175-.164,1.792,1.792,0,0,0-1.611-1.9h-.5a1.828,1.828,0,0,0-1.666,1.973v3.014a1.81,1.81,0,0,0,1.666,1.962h.5a1.807,1.807,0,0,0,1.622-1.962v-1.008h-1.6a.145.145,0,0,1-.164-.164v-.307a.145.145,0,0,1,.164-.164Z" transform="translate(-278.653 -192.195)" fill="#424242"/>
      <path id="Trazado_133" data-name="Trazado 133" d="M390.332,248.4h2.861a.145.145,0,0,1,.164.164v.307a.145.145,0,0,1-.164.164h-2.861v3.058H393.9a.145.145,0,0,1,.164.164v.307a.146.146,0,0,1-.164.165h-4.066a.146.146,0,0,1-.164-.165v-7.628a.145.145,0,0,1,.164-.164H393.9a.145.145,0,0,1,.164.164v.307a.146.146,0,0,1-.164.165h-3.573Z" transform="translate(-306.688 -192.641)" fill="#424242"/>
      <path id="Trazado_134" data-name="Trazado 134" d="M427.283,244.767a.145.145,0,0,1,.164.164v7.628a.145.145,0,0,1-.164.164h-.723a.2.2,0,0,1-.2-.121l-3.551-7.179v7.135a.145.145,0,0,1-.165.164h-.329a.145.145,0,0,1-.164-.164v-7.628a.145.145,0,0,1,.164-.164h.723a.2.2,0,0,1,.2.121l3.551,7.179v-7.135a.145.145,0,0,1,.164-.164Z" transform="translate(-332.251 -192.641)" fill="#424242"/>
      <path id="Trazado_135" data-name="Trazado 135" d="M463.024,249.7a.145.145,0,0,1,.164.164,2.508,2.508,0,0,1-2.28,2.554h-.5a2.526,2.526,0,0,1-2.324-2.63v-2.981A2.5,2.5,0,0,1,460.4,244.2h.5a2.5,2.5,0,0,1,2.28,2.532.145.145,0,0,1-.164.164H462.7a.153.153,0,0,1-.175-.164,1.8,1.8,0,0,0-1.611-1.9h-.5a1.828,1.828,0,0,0-1.666,1.973v2.981a1.85,1.85,0,0,0,1.666,1.995h.5a1.806,1.806,0,0,0,1.611-1.918.153.153,0,0,1,.175-.164Z" transform="translate(-360.527 -192.195)" fill="#424242"/>
      <rect id="Rectángulo_37" data-name="Rectángulo 37" width="0.658" height="7.957" rx="0.329" transform="translate(105.073 52.126)" fill="#424242"/>
      <path id="Trazado_136" data-name="Trazado 136" d="M509.492,248.4h2.861a.145.145,0,0,1,.164.164v.307a.145.145,0,0,1-.164.164h-2.861v3.058h3.573a.145.145,0,0,1,.164.164v.307a.145.145,0,0,1-.164.165H509a.145.145,0,0,1-.164-.165v-7.628a.145.145,0,0,1,.164-.164h4.066a.145.145,0,0,1,.164.164v.307a.145.145,0,0,1-.164.165h-3.573Z" transform="translate(-400.472 -192.641)" fill="#424242"/>
      <path id="Trazado_137" data-name="Trazado 137" d="M543.058,244.2a2.269,2.269,0,0,1,2.247,2.3v.186a.145.145,0,0,1-.164.164h-.34a.145.145,0,0,1-.164-.164V246.5a1.615,1.615,0,0,0-1.655-1.666h-.449a1.427,1.427,0,0,0-1.545,1.524c0,1,.658,1.337,1.578,1.513l.581.109c1.195.23,2.247.778,2.247,2.192a2.225,2.225,0,0,1-2.3,2.236h-.5a2.244,2.244,0,0,1-2.3-2.2v-.3a.145.145,0,0,1,.164-.164h.34a.145.145,0,0,1,.164.164l.011.3a1.6,1.6,0,0,0,1.7,1.567h.384a1.583,1.583,0,0,0,1.688-1.6c0-1.085-.723-1.392-1.589-1.556l-.581-.11c-1.293-.241-2.236-.844-2.236-2.148a2.083,2.083,0,0,1,2.159-2.159Z" transform="translate(-425.225 -192.196)" fill="#424242"/>
    </g>
  </g>
</svg>
